<svg width="24" height="24" viewBox="0 0 24 24" fill="none" xmlns="http://www.w3.org/2000/svg">
<path d="M11.125 15H3.75C3.33516 15 3 15.3352 3 15.75V21C3 21.4148 3.33516 21.75 3.75 21.75H11.125C11.5398 21.75 11.875 21.4148 11.875 21V15.75C11.875 15.3352 11.5398 15 11.125 15ZM10.1875 20.0625H4.6875V16.6875H10.1875V20.0625Z" fill="#2D415C"/>
<path d="M13.75 9.75L21.125 9.75C21.5398 9.75 21.875 9.41484 21.875 9L21.875 3.75C21.875 3.33516 21.5398 3 21.125 3L13.75 3C13.3352 3 13 3.33516 13 3.75L13 9C13 9.41484 13.3352 9.75 13.75 9.75ZM14.6875 4.6875L20.1875 4.6875L20.1875 8.0625L14.6875 8.0625L14.6875 4.6875Z" fill="#2D415C"/>
<path d="M11.125 3L3.75 3C3.33516 3 3 3.33516 3 3.75V13C3 13.4148 3.33516 13.75 3.75 13.75H11.125C11.5398 13.75 11.875 13.4148 11.875 13V3.75C11.875 3.33516 11.5398 3 11.125 3ZM10.1875 12.0625H4.6875V4.6875H10.1875V12.0625Z" fill="#2D415C"/>
<path d="M13.75 21.75L21.125 21.75C21.5398 21.75 21.875 21.4148 21.875 21L21.875 11.75C21.875 11.3352 21.5398 11 21.125 11L13.75 11C13.3352 11 13 11.3352 13 11.75L13 21C13 21.4148 13.3352 21.75 13.75 21.75ZM14.6875 12.6875L20.1875 12.6875L20.1875 20.0625L14.6875 20.0625L14.6875 12.6875Z" fill="#2D415C"/>
</svg>
