<svg width="12" height="12" viewBox="0 0 12 12" fill="none" xmlns="http://www.w3.org/2000/svg">
<path d="M11.0312 0.53125H0.96875C0.726758 0.53125 0.53125 0.726758 0.53125 0.96875V11.0312C0.53125 11.2732 0.726758 11.4688 0.96875 11.4688H11.0312C11.2732 11.4688 11.4688 11.2732 11.4688 11.0312V0.96875C11.4688 0.726758 11.2732 0.53125 11.0312 0.53125ZM10.4844 10.4844H1.51562V1.51562H10.4844V10.4844ZM3.64844 8.33789V9.39062C3.64844 9.45078 3.69766 9.5 3.75781 9.5H4.41406C4.47422 9.5 4.52344 9.45078 4.52344 9.39062V8.33789C4.38535 8.38301 4.23906 8.40625 4.08594 8.40625C3.93281 8.40625 3.78652 8.38164 3.64844 8.33789ZM4.52344 5.63086V2.60938C4.52344 2.54922 4.47422 2.5 4.41406 2.5H3.75781C3.69766 2.5 3.64844 2.54922 3.64844 2.60938V5.63086C3.78652 5.58574 3.93281 5.5625 4.08594 5.5625C4.23906 5.5625 4.38535 5.58711 4.52344 5.63086ZM3.64844 8.33789C3.78652 8.38301 3.93281 8.40625 4.08594 8.40625C4.23906 8.40625 4.38535 8.38164 4.52344 8.33789C5.09492 8.15332 5.50781 7.61738 5.50781 6.98438C5.50781 6.35137 5.09492 5.81543 4.52344 5.63086C4.38535 5.58574 4.23906 5.5625 4.08594 5.5625C3.93281 5.5625 3.78652 5.58711 3.64844 5.63086C3.07695 5.81543 2.66406 6.35137 2.66406 6.98438C2.66406 7.61738 3.07695 8.15332 3.64844 8.33789ZM3.6498 6.75605C3.65391 6.74785 3.65938 6.73965 3.66348 6.73145V6.73008L3.67988 6.70547C3.68125 6.70273 3.68262 6.70137 3.68398 6.69863C3.68809 6.6918 3.69355 6.68633 3.69766 6.67949C3.69902 6.67813 3.70039 6.67539 3.70176 6.67402C3.70859 6.66582 3.71406 6.65898 3.7209 6.65215L3.725 6.64805L3.74141 6.63164L3.74688 6.62617C3.75371 6.61934 3.76055 6.61387 3.76875 6.60703C3.77695 6.6002 3.78379 6.59473 3.79199 6.58926C3.79473 6.58789 3.79609 6.58652 3.79883 6.58516C3.80566 6.58105 3.81113 6.57559 3.81797 6.57148C3.81934 6.57012 3.82207 6.56875 3.82344 6.56738C3.83164 6.56191 3.83984 6.55781 3.84941 6.55234C3.85078 6.55098 3.85352 6.55098 3.85488 6.54961C3.86172 6.54551 3.86855 6.54277 3.87676 6.53867L3.88496 6.53457C3.89453 6.53047 3.90273 6.52637 3.9123 6.52363C3.92187 6.51953 3.93145 6.5168 3.94102 6.51406C3.94375 6.51269 3.94648 6.5127 3.94922 6.51133C3.95742 6.50859 3.96426 6.50723 3.97246 6.50586C3.9752 6.50586 3.97656 6.50449 3.9793 6.50449C3.98887 6.50176 3.9998 6.50039 4.00937 6.49902C4.01211 6.49902 4.01348 6.49902 4.01621 6.49766C4.02441 6.49629 4.03262 6.49629 4.04082 6.49492H4.04902C4.05996 6.49492 4.06953 6.49355 4.08047 6.49355C4.09141 6.49355 4.10098 6.49356 4.11191 6.49492H4.12012C4.12832 6.49492 4.13652 6.49629 4.14473 6.49766C4.14746 6.49766 4.14883 6.49766 4.15156 6.49902C4.16113 6.50039 4.17207 6.50176 4.18164 6.50449C4.18438 6.50449 4.18574 6.50586 4.18848 6.50586C4.19668 6.50723 4.20488 6.50996 4.21172 6.51133C4.21445 6.5127 4.21719 6.51269 4.21992 6.51406C4.22949 6.5168 4.23906 6.51953 4.24863 6.52363C4.2582 6.52637 4.26641 6.53047 4.27598 6.53457L4.28418 6.53867C4.29102 6.54141 4.29922 6.54551 4.30605 6.54961C4.30742 6.55098 4.31016 6.55098 4.31152 6.55234C4.31973 6.55645 4.3293 6.56191 4.3375 6.56738C4.33887 6.56875 4.3416 6.57012 4.34297 6.57148C4.3498 6.57559 4.35664 6.57969 4.36211 6.58516C4.36484 6.58652 4.36621 6.58789 4.36895 6.58926C4.37715 6.59473 4.38535 6.60156 4.39219 6.60703C4.39902 6.6125 4.40723 6.61934 4.41406 6.62617L4.41953 6.63164L4.43594 6.64805L4.44004 6.65215C4.44687 6.65898 4.45371 6.66719 4.45918 6.67402C4.46055 6.67539 4.46191 6.67813 4.46328 6.67949C4.46875 6.68496 4.47285 6.6918 4.47695 6.69863C4.47832 6.70137 4.47969 6.70273 4.48105 6.70547L4.49746 6.73008C4.49746 6.73008 4.49746 6.73145 4.49883 6.73145C4.54441 6.80794 4.5685 6.89533 4.56855 6.98438C4.56855 7.06641 4.54805 7.14434 4.5125 7.2127C4.5084 7.2209 4.50293 7.2291 4.49883 7.2373C4.49883 7.2373 4.49883 7.23867 4.49746 7.23867L4.48105 7.26328C4.47969 7.26602 4.47832 7.26738 4.47695 7.27012C4.47285 7.27695 4.46738 7.28242 4.46328 7.28926C4.46191 7.29062 4.46055 7.29336 4.45918 7.29473C4.45234 7.30293 4.44687 7.30977 4.44004 7.3166L4.43594 7.3207L4.41953 7.33711L4.41406 7.34258C4.40723 7.34941 4.40039 7.35488 4.39219 7.36172C4.38398 7.36855 4.37715 7.37402 4.36895 7.37949C4.36621 7.38086 4.36484 7.38223 4.36211 7.38359C4.35527 7.3877 4.3498 7.39316 4.34297 7.39727C4.3416 7.39863 4.33887 7.4 4.3375 7.40137C4.3293 7.40684 4.32109 7.41094 4.31152 7.41641C4.31016 7.41777 4.30742 7.41777 4.30605 7.41914C4.29922 7.42324 4.29238 7.42598 4.28418 7.43008L4.27598 7.43418C4.26641 7.43828 4.2582 7.44238 4.24863 7.44512C4.23906 7.44922 4.22949 7.45195 4.21992 7.45469C4.21719 7.45606 4.21445 7.45605 4.21172 7.45742C4.20352 7.46016 4.19668 7.46152 4.18848 7.46289C4.18574 7.46289 4.18438 7.46426 4.18164 7.46426C4.17207 7.46699 4.16113 7.46836 4.15156 7.46973C4.14883 7.46973 4.14746 7.46973 4.14473 7.47109C4.13652 7.47246 4.12832 7.47246 4.12012 7.47383H4.11191C4.10098 7.47383 4.09141 7.4752 4.08047 7.4752C4.06953 7.4752 4.05996 7.47519 4.04902 7.47383H4.04082C4.03262 7.47383 4.02441 7.47246 4.01621 7.47109C4.01348 7.47109 4.01211 7.47109 4.00937 7.46973C3.9998 7.46836 3.98887 7.46699 3.9793 7.46426C3.97656 7.46426 3.9752 7.46289 3.97246 7.46289C3.96426 7.46152 3.95605 7.45879 3.94922 7.45742C3.94648 7.45605 3.94375 7.45606 3.94102 7.45469C3.93145 7.45195 3.92187 7.44922 3.9123 7.44512C3.90273 7.44238 3.89453 7.43828 3.88496 7.43418L3.87676 7.43008C3.86992 7.42734 3.86172 7.42324 3.85488 7.41914C3.85352 7.41777 3.85078 7.41777 3.84941 7.41641C3.84121 7.4123 3.83164 7.40684 3.82344 7.40137C3.82207 7.4 3.81934 7.39863 3.81797 7.39727C3.81113 7.39316 3.8043 7.38906 3.79883 7.38359C3.79609 7.38223 3.79473 7.38086 3.79199 7.37949C3.78379 7.37402 3.77559 7.36719 3.76875 7.36172C3.76191 7.35625 3.75371 7.34941 3.74688 7.34258L3.74141 7.33711L3.725 7.3207L3.7209 7.3166C3.71406 7.30977 3.70723 7.30156 3.70176 7.29473C3.70039 7.29336 3.69902 7.29062 3.69766 7.28926C3.69219 7.28379 3.68809 7.27695 3.68398 7.27012C3.68262 7.26738 3.68125 7.26602 3.67988 7.26328L3.66348 7.23867V7.2373C3.65801 7.2291 3.65391 7.2209 3.6498 7.2127C3.61426 7.14434 3.59375 7.06641 3.59375 6.98438C3.59375 6.90234 3.61426 6.82441 3.6498 6.75605ZM7.47656 6.36914V9.39062C7.47656 9.45078 7.52578 9.5 7.58594 9.5H8.24219C8.30234 9.5 8.35156 9.45078 8.35156 9.39062V6.36914C8.21348 6.41426 8.06719 6.4375 7.91406 6.4375C7.76094 6.4375 7.61465 6.41289 7.47656 6.36914ZM8.35156 3.66211V2.60938C8.35156 2.54922 8.30234 2.5 8.24219 2.5H7.58594C7.52578 2.5 7.47656 2.54922 7.47656 2.60938V3.66211C7.61465 3.61699 7.76094 3.59375 7.91406 3.59375C8.06719 3.59375 8.21348 3.61836 8.35156 3.66211ZM7.47656 6.36914C7.61465 6.41426 7.76094 6.4375 7.91406 6.4375C8.06719 6.4375 8.21348 6.41289 8.35156 6.36914C8.92305 6.18457 9.33594 5.64863 9.33594 5.01562C9.33594 4.38262 8.92305 3.84668 8.35156 3.66211C8.21348 3.61699 8.06719 3.59375 7.91406 3.59375C7.76094 3.59375 7.61465 3.61836 7.47656 3.66211C6.90508 3.84668 6.49219 4.38262 6.49219 5.01562C6.49219 5.64863 6.90508 6.18457 7.47656 6.36914ZM7.47793 4.7873C7.48203 4.7791 7.4875 4.7709 7.4916 4.7627V4.76133L7.50801 4.73672C7.50937 4.73398 7.51074 4.73262 7.51211 4.72988C7.51621 4.72305 7.52168 4.71758 7.52578 4.71074C7.52715 4.70938 7.52852 4.70664 7.52988 4.70527C7.53672 4.69707 7.54219 4.69023 7.54902 4.6834L7.55312 4.6793L7.56953 4.66289L7.575 4.65742C7.58184 4.65059 7.58867 4.64512 7.59687 4.63828C7.60508 4.63145 7.61191 4.62598 7.62012 4.62051C7.62285 4.61914 7.62422 4.61777 7.62695 4.61641C7.63379 4.6123 7.63926 4.60684 7.64609 4.60273C7.64746 4.60137 7.6502 4.6 7.65156 4.59863C7.65977 4.59316 7.66797 4.58906 7.67754 4.58359C7.67891 4.58223 7.68164 4.58223 7.68301 4.58086C7.68984 4.57676 7.69668 4.57402 7.70488 4.56992L7.71309 4.56582C7.72266 4.56172 7.73086 4.55762 7.74043 4.55488C7.75 4.55078 7.75957 4.54805 7.76914 4.54531C7.77188 4.54395 7.77461 4.54395 7.77734 4.54258C7.78555 4.53984 7.79238 4.53848 7.80059 4.53711C7.80332 4.53711 7.80469 4.53574 7.80742 4.53574C7.81699 4.53301 7.82793 4.53164 7.8375 4.53027C7.84023 4.53027 7.8416 4.53027 7.84434 4.52891C7.85254 4.52754 7.86074 4.52754 7.86895 4.52617H7.87715C7.88809 4.52617 7.89766 4.5248 7.90859 4.5248C7.91953 4.5248 7.9291 4.5248 7.94004 4.52617H7.94824C7.95645 4.52617 7.96465 4.52754 7.97285 4.52891C7.97559 4.52891 7.97695 4.52891 7.97969 4.53027C7.98926 4.53164 8.0002 4.53301 8.00977 4.53574C8.0125 4.53574 8.01387 4.53711 8.0166 4.53711C8.0248 4.53848 8.03301 4.54121 8.03984 4.54258C8.04258 4.54395 8.04531 4.54395 8.04805 4.54531C8.05762 4.54805 8.06719 4.55078 8.07676 4.55488C8.08633 4.55762 8.09453 4.56172 8.1041 4.56582L8.1123 4.56992C8.11914 4.57266 8.12734 4.57676 8.13418 4.58086C8.13555 4.58223 8.13828 4.58223 8.13965 4.58359C8.14785 4.5877 8.15742 4.59316 8.16563 4.59863C8.16699 4.6 8.16973 4.60137 8.17109 4.60273C8.17793 4.60684 8.18477 4.61094 8.19023 4.61641C8.19297 4.61777 8.19434 4.61914 8.19707 4.62051C8.20527 4.62598 8.21348 4.63281 8.22031 4.63828C8.22715 4.64375 8.23535 4.65059 8.24219 4.65742L8.24766 4.66289L8.26406 4.6793L8.26816 4.6834C8.275 4.69023 8.28184 4.69844 8.2873 4.70527C8.28867 4.70664 8.29004 4.70938 8.29141 4.71074C8.29687 4.71621 8.30098 4.72305 8.30508 4.72988C8.30645 4.73262 8.30781 4.73398 8.30918 4.73672L8.32559 4.76133V4.7627C8.37117 4.83919 8.39526 4.92658 8.39531 5.01562C8.39531 5.09766 8.3748 5.17559 8.33926 5.24395C8.33516 5.25215 8.32969 5.26035 8.32559 5.26855V5.26992L8.30918 5.29453C8.30781 5.29727 8.30645 5.29863 8.30508 5.30137C8.30098 5.3082 8.29551 5.31367 8.29141 5.32051C8.29004 5.32187 8.28867 5.32461 8.2873 5.32598C8.28047 5.33418 8.275 5.34102 8.26816 5.34785L8.26406 5.35195L8.24766 5.36836L8.24219 5.37383C8.23535 5.38066 8.22852 5.38613 8.22031 5.39297C8.21211 5.3998 8.20527 5.40527 8.19707 5.41074C8.19434 5.41211 8.19297 5.41348 8.19023 5.41484C8.1834 5.41895 8.17793 5.42441 8.17109 5.42852C8.16973 5.42988 8.16699 5.43125 8.16563 5.43262C8.15742 5.43809 8.14922 5.44219 8.13965 5.44766C8.13828 5.44902 8.13555 5.44902 8.13418 5.45039C8.12734 5.45449 8.12051 5.45723 8.1123 5.46133L8.1041 5.46543C8.09453 5.46953 8.08633 5.47363 8.07676 5.47637C8.06719 5.48047 8.05762 5.4832 8.04805 5.48594C8.04531 5.4873 8.04258 5.4873 8.03984 5.48867C8.03164 5.49141 8.0248 5.49277 8.0166 5.49414C8.01387 5.49414 8.0125 5.49551 8.00977 5.49551C8.0002 5.49824 7.98926 5.49961 7.97969 5.50098C7.97695 5.50098 7.97559 5.50098 7.97285 5.50234C7.96465 5.50371 7.95645 5.50371 7.94824 5.50508H7.94004C7.9291 5.50508 7.91953 5.50645 7.90859 5.50645C7.89766 5.50645 7.88809 5.50644 7.87715 5.50508H7.86895C7.86074 5.50508 7.85254 5.50371 7.84434 5.50234C7.8416 5.50234 7.84023 5.50234 7.8375 5.50098C7.82793 5.49961 7.81699 5.49824 7.80742 5.49551C7.80469 5.49551 7.80332 5.49414 7.80059 5.49414C7.79238 5.49277 7.78418 5.49004 7.77734 5.48867C7.77461 5.4873 7.77188 5.4873 7.76914 5.48594C7.75957 5.4832 7.75 5.48047 7.74043 5.47637C7.73086 5.47363 7.72266 5.46953 7.71309 5.46543L7.70488 5.46133C7.69805 5.45859 7.68984 5.45449 7.68301 5.45039C7.68164 5.44902 7.67891 5.44902 7.67754 5.44766C7.66934 5.44355 7.65977 5.43809 7.65156 5.43262C7.6502 5.43125 7.64746 5.42988 7.64609 5.42852C7.63926 5.42441 7.63242 5.42031 7.62695 5.41484C7.62422 5.41348 7.62285 5.41211 7.62012 5.41074C7.61191 5.40527 7.60371 5.39844 7.59687 5.39297C7.59004 5.3875 7.58184 5.38066 7.575 5.37383L7.56953 5.36836L7.55312 5.35195L7.54902 5.34785C7.54219 5.34102 7.53535 5.33281 7.52988 5.32598C7.52852 5.32461 7.52715 5.32187 7.52578 5.32051C7.52031 5.31504 7.51621 5.3082 7.51211 5.30137C7.51074 5.29863 7.50937 5.29727 7.50801 5.29453L7.4916 5.26992V5.26855C7.48613 5.26035 7.48203 5.25215 7.47793 5.24395C7.44238 5.17559 7.42188 5.09766 7.42188 5.01562C7.42188 4.93359 7.44238 4.85566 7.47793 4.7873Z" fill="#13C2C2"/>
</svg>
